<?xml version="1.0" ?><svg data-name="Layer 1" id="Layer_1" viewBox="0 0 64 64" xmlns="http://www.w3.org/2000/svg"><title/><path d="M32,42l14-5.55V32a4,4,0,0,0-2.89-3.84l-6.22,1.87c0,.03-.01.06-.01.08A5,5,0,0,1,27,29c0-.34.04-2.68.1-3L22,28a4,4,0,0,0-4,4v4.45Z" style="fill:#ff70a6"/><path d="M24,14V13a10,10,0,0,1,20,0v3a29.986,29.986,0,0,0-1.15,8.25,28.533,28.533,0,0,0,.26,3.91c.08.66.19,1.32.32,1.98L44,33a9.979,9.979,0,0,1-7.11-2.97,9.759,9.759,0,0,1-2.19-3.38Z" style="fill:#2d3142"/><polygon points="54 43 54 35 46 36.45 32 39 32 42 32 61 54 57 54 51 54 43" style="fill:#9b9c9b"/><ellipse cx="54" cy="47" rx="2" ry="4" style="fill:#fec3a6"/><polygon points="10 43 10 35 18 36.45 32 39 32 42 32 61 10 57 10 51 10 43" style="fill:#9b9c9b"/><ellipse cx="10" cy="47" rx="2" ry="4" style="fill:#fec3a6"/><path d="M39.926,8.05A36.023,36.023,0,0,1,27.017,13.4L24,14a2,2,0,0,0,0,4v1.056a8,8,0,0,0,4.422,7.155L32,28l3.578-1.789A8,8,0,0,0,40,19.056V8Z" style="fill:#fec3a6"/><path d="M55,42.286V35a1,1,0,0,0-1.179-.984L47,35.256V32a5.015,5.015,0,0,0-2.958-4.552,27.823,27.823,0,0,1-.192-3.2,28.979,28.979,0,0,1,1.112-7.975A1.02,1.02,0,0,0,45,16V13a11,11,0,0,0-22,0v.186a2.99,2.99,0,0,0,0,5.643v.227a8.937,8.937,0,0,0,2.7,6.418L21.8,27A5.006,5.006,0,0,0,17,32v3.256l-6.821-1.24A1,1,0,0,0,9,35v7.286C7.815,42.945,7,44.743,7,47s.815,4.055,2,4.714V57a1,1,0,0,0,.821.983l22,4a.951.951,0,0,0,.358,0l22-4A1,1,0,0,0,55,57V51.714c1.185-.659,2-2.457,2-4.714S56.185,42.945,55,42.286ZM34,4a9,9,0,0,1,9,9v2.861a30.973,30.973,0,0,0-1.15,8.389,29.443,29.443,0,0,0,.267,4.03c.08.654.188,1.324.332,2.055l.316,1.581A8.928,8.928,0,0,1,37.6,29.327,8.783,8.783,0,0,1,36,27.118l.024-.013A8.949,8.949,0,0,0,41,19.056V8a1,1,0,0,0-1.558-.83l-.072.049a34.826,34.826,0,0,1-12.55,5.2l-1.809.362A9.005,9.005,0,0,1,34,4ZM25,19.056V18a1,1,0,0,0-1-1,1,1,0,0,1,0-2,1,1,0,0,0,.2-.02l3.017-.6A36.783,36.783,0,0,0,39,9.819v9.237a6.957,6.957,0,0,1-3.869,6.26L32,26.882l-3.131-1.566A6.957,6.957,0,0,1,25,19.056ZM35.781,30.289A4,4,0,0,1,28,29c0-.284.016-1.157.038-1.863L31.553,28.9a1,1,0,0,0,.894,0l1.765-.883A10.727,10.727,0,0,0,35.781,30.289ZM10,50c-.249,0-1-1.064-1-3s.751-3,1-3,1,1.064,1,3S10.249,50,10,50Zm21,9.8L11,56.165V51.714c1.185-.659,2-2.457,2-4.714s-.815-4.055-2-4.714V36.2l20,3.637Zm1-21.818L19,35.62V32a3,3,0,0,1,3-3,.99.99,0,0,0,.365-.069L26.026,27.5C26.007,28.259,26,28.986,26,29a5.991,5.991,0,0,0,11.33,2.732A10.9,10.9,0,0,0,44,34a1,1,0,0,0,.98-1.2l-.488-2.454A2.984,2.984,0,0,1,45,32v3.62ZM53,56.165,33,59.8V39.834L53,36.2v6.089c-1.185.659-2,2.457-2,4.714s.815,4.055,2,4.714ZM54,50c-.249,0-1-1.064-1-3s.751-3,1-3,1,1.064,1,3S54.249,50,54,50Z"/></svg>